<svg PUBLIC "-//W3C//DTD SVG 20010904//EN" "http://www.w3.org/TR/2001/REC-SVG-20010904/DTD/svg10.dtd"><svg version="1.0" xmlns="http://www.w3.org/2000/svg" width="1920.000000pt" height="1920.000000pt" viewBox="0 0 1920.000000 1920.000000" preserveAspectRatio="xMidYMid meet"><metadata>Created by potrace 1.16, written by Peter Selinger 2001-2019</metadata><g transform="translate(0.000000,1920.000000) scale(0.100000,-0.100000)" fill="#000000" stroke="none"><path d="M12480 13495 c-826 -350 -1489 -694 -1834 -954 -309 -233 -767 -777 -1022 -1216 l-29 -50 0 -365 c0 -343 3 -397 43 -880 23 -283 44 -519 45 -524 2 -5 129 137 283 315 153 178 322 368 374 423 203 211 518 414 1045 676 723 358 1547 659 2682 980 158 45 305 87 327 94 l39 12 -144 124 c-232 201 -529 471 -739 670 -264 251 -839 790 -842 790 -2 0 -104 -43 -228 -95z"/><path d="M5869 13343 c-18 -21 -217 -233 -443 -472 -226 -239 -411 -438 -411 -443 0 -5 47 -28 105 -50 812 -314 1453 -588 1930 -824 1128 -558 1999 -1192 2447 -1781 40 -53 73 -88 73 -79 0 9 -11 107 -25 219 -23 189 -45 484 -61 831 l-7 150 -43 86 c-163 325 -552 730 -1079 1123 -604 451 -1320 853 -1995 1120 -174 69 -424 157 -445 157 -7 0 -28 -17 -46 -37z"/><path d="M4795 11980 c-75 -89 -133 -165 -129 -170 5 -4 72 -24 149 -45 944 -252 2032 -607 2637 -859 757 -316 1434 -757 1974 -1288 138 -136 141 -138 152 -114 10 22 7 32 -25 78 -240 350 -706 766 -1241 1107 -664 424 -1727 894 -3032 1341 -157 54 -299 101 -317 104 -30 7 -34 3 -168 -154z"/><path d="M14085 11719 c-856 -239 -1304 -380 -1798 -565 -607 -227 -1164 -490 -1482 -700 -123 -81 -259 -199 -495 -430 -242 -238 -555 -568 -555 -585 0 -7 12 -21 26 -32 l27 -19 118 99 c323 268 467 351 874 505 425 161 655 219 1278 322 645 107 1804 265 2800 382 83 10 152 22 152 26 0 4 -122 155 -272 336 -149 180 -337 407 -417 504 -101 122 -152 177 -166 177 -11 0 -51 -9 -90 -20z"/><path d="M4525 11343 c4 -60 10 -112 15 -116 9 -10 395 -74 975 -162 661 -100 875 -141 1305 -250 457 -115 761 -205 1275 -376 209 -70 381 -126 383 -124 5 5 -244 129 -412 205 -666 301 -1456 534 -2556 754 -327 65 -946 176 -983 176 -6 0 -6 -44 -2 -107z"/><path d="M4282 10553 c-55 -137 -126 -308 -156 -382 l-56 -134 152 6 c388 17 1222 29 1603 23 1121 -17 1616 -66 2240 -222 414 -103 914 -276 1298 -449 70 -32 129 -56 131 -54 2 2 16 26 31 53 l29 49 -86 82 c-523 499 -1271 863 -2200 1070 -629 141 -1400 205 -2474 205 l-411 0 -101 -247z"/><path d="M14725 10554 c-60 -7 -290 -34 -510 -58 -941 -106 -1390 -157 -1393 -160 -1 -2 120 -6 270 -10 150 -3 361 -9 468 -12 662 -18 1328 -34 1408 -34 l92 0 -31 63 c-17 34 -52 99 -77 145 -53 95 -36 90 -227 66z"/><path d="M12415 10204 c-22 -2 -112 -9 -200 -14 -789 -53 -1502 -265 -2051 -610 -137 -86 -314 -213 -313 -225 0 -5 24 -29 53 -52 l53 -43 104 54 c368 192 916 349 1424 407 124 14 904 20 1120 8 909 -48 1870 -166 2654 -325 33 -7 34 -7 27 22 -4 16 -30 133 -57 259 -46 216 -102 441 -111 451 -6 5 -525 29 -1073 50 -389 14 -1539 27 -1630 18z"/><path d="M5400 9988 c-197 -7 -776 -34 -970 -45 -58 -3 -110 -10 -117 -17 -14 -13 -153 -241 -153 -252 0 -3 17 -4 38 -1 20 3 145 21 277 41 853 125 1245 150 2345 151 837 0 826 -2 345 50 -494 52 -1193 92 -1470 83 -55 -2 -188 -6 -295 -10z"/><path d="M6515 9774 c-38 -2 -173 -8 -300 -14 -525 -25 -1250 -101 -1902 -198 l-247 -37 -205 -326 c-114 -179 -230 -362 -258 -407 -29 -45 -51 -82 -49 -82 2 0 70 9 152 20 709 96 1556 190 2224 244 757 63 1045 77 1672 83 664 7 1002 -6 1437 -54 l155 -17 84 90 c116 121 183 204 177 214 -8 12 -194 84 -354 137 -499 163 -1101 278 -1721 328 -177 14 -718 26 -865 19z"/><path d="M11615 9594 c-239 -18 -340 -27 -400 -35 -303 -44 -621 -132 -920 -254 -214 -87 -248 -105 -234 -121 14 -18 200 -143 265 -179 l51 -29 174 22 c387 48 765 67 1194 58 415 -8 668 -25 1385 -96 1607 -158 2620 -242 2620 -216 0 4 -37 49 -83 99 -144 161 -291 340 -323 395 -3 5 -397 68 -734 117 -708 103 -1474 185 -2095 225 -165 11 -811 21 -900 14z"/><path d="M9622 9323 c-10 -16 -40 -68 -67 -118 -85 -159 -163 -258 -235 -295 -40 -20 -134 -40 -192 -40 -56 0 -49 -21 35 -104 139 -138 264 -163 473 -94 36 11 175 75 310 142 l245 121 -78 52 c-77 52 -185 137 -362 286 -50 42 -96 77 -101 77 -5 0 -17 -12 -28 -27z"/><path d="M8760 8949 c-100 -7 -814 -49 -1075 -64 -49 -3 -169 -10 -265 -15 -96 -6 -348 -19 -560 -30 -483 -25 -909 -52 -1440 -90 -973 -70 -2172 -170 -2187 -183 -7 -5 -13 -20 -13 -32 0 -21 4 -23 38 -19 20 2 222 13 447 24 2082 100 2683 110 4688 79 389 -6 710 -10 712 -7 2 2 -16 33 -41 68 -24 35 -69 113 -100 172 -39 77 -60 108 -72 107 -9 -1 -69 -5 -132 -10z"/></g></svg>
